<mxfile host="Electron" agent="Mozilla/5.0 (Windows NT 10.0; Win64; x64) AppleWebKit/537.36 (KHTML, like Gecko) draw.io/24.7.5 Chrome/126.0.6478.183 Electron/31.3.0 Safari/537.36" version="24.7.5">
  <diagram name="Page-1" id="jqNsPWzOKys25l1DeQyC">
    <mxGraphModel dx="1434" dy="836" grid="1" gridSize="10" guides="1" tooltips="1" connect="1" arrows="1" fold="1" page="1" pageScale="1" pageWidth="850" pageHeight="1100" background="#400040" math="0" shadow="0">
      <root>
        <mxCell id="0" />
        <mxCell id="1" parent="0" />
        <mxCell id="unafsOgkc8dJaCwN3ePO-2" style="edgeStyle=orthogonalEdgeStyle;rounded=0;orthogonalLoop=1;jettySize=auto;html=1;entryX=0.5;entryY=0;entryDx=0;entryDy=0;" edge="1" parent="1" source="unafsOgkc8dJaCwN3ePO-3" target="unafsOgkc8dJaCwN3ePO-5">
          <mxGeometry relative="1" as="geometry" />
        </mxCell>
        <mxCell id="unafsOgkc8dJaCwN3ePO-3" value="INPUT totalmonthlyrent" style="shape=parallelogram;perimeter=parallelogramPerimeter;whiteSpace=wrap;html=1;fixedSize=1;fillColor=#0050ef;fontColor=#ffffff;strokeColor=#000105;strokeWidth=10;rounded=1;" vertex="1" parent="1">
          <mxGeometry x="330" y="300" width="200" height="60" as="geometry" />
        </mxCell>
        <mxCell id="unafsOgkc8dJaCwN3ePO-4" style="edgeStyle=orthogonalEdgeStyle;rounded=0;orthogonalLoop=1;jettySize=auto;html=1;exitX=0.5;exitY=1;exitDx=0;exitDy=0;entryX=0.5;entryY=0;entryDx=0;entryDy=0;" edge="1" parent="1" source="unafsOgkc8dJaCwN3ePO-5" target="unafsOgkc8dJaCwN3ePO-7">
          <mxGeometry relative="1" as="geometry" />
        </mxCell>
        <mxCell id="unafsOgkc8dJaCwN3ePO-5" value="&lt;div&gt;Dailyrent = totalmonthlyrent / 30&lt;br&gt;&lt;/div&gt;" style="shape=process;whiteSpace=wrap;html=1;backgroundOutline=1;fillColor=#008a00;fontColor=#ffffff;strokeColor=#000000;strokeWidth=10;rounded=1;" vertex="1" parent="1">
          <mxGeometry x="305" y="400" width="250" height="70" as="geometry" />
        </mxCell>
        <mxCell id="unafsOgkc8dJaCwN3ePO-6" style="edgeStyle=orthogonalEdgeStyle;rounded=0;orthogonalLoop=1;jettySize=auto;html=1;exitX=0.5;exitY=1;exitDx=0;exitDy=0;entryX=0.5;entryY=0;entryDx=0;entryDy=0;" edge="1" parent="1" source="unafsOgkc8dJaCwN3ePO-7" target="unafsOgkc8dJaCwN3ePO-9">
          <mxGeometry relative="1" as="geometry" />
        </mxCell>
        <mxCell id="unafsOgkc8dJaCwN3ePO-7" value="OUTPUT Dailyrent" style="shape=parallelogram;perimeter=parallelogramPerimeter;whiteSpace=wrap;html=1;fixedSize=1;fillColor=#0050ef;fontColor=#ffffff;strokeColor=#000105;strokeWidth=10;rounded=1;" vertex="1" parent="1">
          <mxGeometry x="335" y="520" width="190" height="80" as="geometry" />
        </mxCell>
        <mxCell id="unafsOgkc8dJaCwN3ePO-12" style="edgeStyle=orthogonalEdgeStyle;rounded=0;orthogonalLoop=1;jettySize=auto;html=1;entryX=0.5;entryY=0;entryDx=0;entryDy=0;" edge="1" parent="1" source="unafsOgkc8dJaCwN3ePO-8" target="unafsOgkc8dJaCwN3ePO-3">
          <mxGeometry relative="1" as="geometry" />
        </mxCell>
        <mxCell id="unafsOgkc8dJaCwN3ePO-8" value="BEGIN" style="ellipse;whiteSpace=wrap;html=1;fillColor=#a20025;fontColor=#ffffff;strokeColor=#000000;strokeWidth=7;" vertex="1" parent="1">
          <mxGeometry x="190" y="140" width="160" height="100" as="geometry" />
        </mxCell>
        <mxCell id="unafsOgkc8dJaCwN3ePO-9" value="END" style="ellipse;whiteSpace=wrap;html=1;fillColor=#a20025;fontColor=#ffffff;strokeColor=#000000;strokeWidth=7;" vertex="1" parent="1">
          <mxGeometry x="200" y="700" width="140" height="110" as="geometry" />
        </mxCell>
      </root>
    </mxGraphModel>
  </diagram>
</mxfile>
